<mxfile host="Electron" modified="2023-12-24T14:47:55.784Z" agent="Mozilla/5.0 (Windows NT 10.0; Win64; x64) AppleWebKit/537.36 (KHTML, like Gecko) draw.io/22.1.2 Chrome/114.0.5735.289 Electron/25.9.4 Safari/537.36" etag="KXi7d2jf7Xqb7uI2Brt9" version="22.1.2" type="device">
  <diagram name="Page-1" id="PA2ZacShCOhpD38rTW54">
    <mxGraphModel dx="810" dy="495" grid="1" gridSize="10" guides="1" tooltips="1" connect="1" arrows="1" fold="1" page="1" pageScale="1" pageWidth="1169" pageHeight="827" math="0" shadow="0">
      <root>
        <mxCell id="0" />
        <mxCell id="1" parent="0" />
        <mxCell id="cW_9hfCkOxiDFIGcrexD-16" value="Client" style="swimlane;fontStyle=1;align=center;verticalAlign=top;childLayout=stackLayout;horizontal=1;startSize=26;horizontalStack=0;resizeParent=1;resizeParentMax=0;resizeLast=0;collapsible=1;marginBottom=0;whiteSpace=wrap;html=1;" parent="1" vertex="1">
          <mxGeometry x="80" y="220" width="160" height="190" as="geometry" />
        </mxCell>
        <mxCell id="cW_9hfCkOxiDFIGcrexD-17" value="- nom&lt;br&gt;- prenom&lt;br&gt;- dateDeNaissance&lt;br&gt;&lt;font color=&quot;#00cc00&quot;&gt;- adresse&lt;/font&gt;&lt;br&gt;- email&lt;br&gt;- gsm&lt;br&gt;- tel&lt;br&gt;- login&lt;br&gt;- motDePasse" style="text;strokeColor=none;fillColor=none;align=left;verticalAlign=top;spacingLeft=4;spacingRight=4;overflow=hidden;rotatable=0;points=[[0,0.5],[1,0.5]];portConstraint=eastwest;whiteSpace=wrap;html=1;" parent="cW_9hfCkOxiDFIGcrexD-16" vertex="1">
          <mxGeometry y="26" width="160" height="144" as="geometry" />
        </mxCell>
        <mxCell id="cW_9hfCkOxiDFIGcrexD-18" value="" style="line;strokeWidth=1;fillColor=none;align=left;verticalAlign=middle;spacingTop=-1;spacingLeft=3;spacingRight=3;rotatable=0;labelPosition=right;points=[];portConstraint=eastwest;strokeColor=inherit;" parent="cW_9hfCkOxiDFIGcrexD-16" vertex="1">
          <mxGeometry y="170" width="160" height="8" as="geometry" />
        </mxCell>
        <mxCell id="cW_9hfCkOxiDFIGcrexD-19" value="&amp;nbsp;" style="text;strokeColor=none;fillColor=none;align=left;verticalAlign=top;spacingLeft=4;spacingRight=4;overflow=hidden;rotatable=0;points=[[0,0.5],[1,0.5]];portConstraint=eastwest;whiteSpace=wrap;html=1;" parent="cW_9hfCkOxiDFIGcrexD-16" vertex="1">
          <mxGeometry y="178" width="160" height="12" as="geometry" />
        </mxCell>
        <mxCell id="cW_9hfCkOxiDFIGcrexD-21" value="LigneCommande" style="swimlane;fontStyle=1;align=center;verticalAlign=top;childLayout=stackLayout;horizontal=1;startSize=26;horizontalStack=0;resizeParent=1;resizeParentMax=0;resizeLast=0;collapsible=1;marginBottom=0;whiteSpace=wrap;html=1;" parent="1" vertex="1">
          <mxGeometry x="342" y="118" width="160" height="80" as="geometry" />
        </mxCell>
        <mxCell id="cW_9hfCkOxiDFIGcrexD-22" value="- quantite&lt;br&gt;- prix&lt;font color=&quot;#00cc00&quot;&gt;Unitaire&lt;/font&gt;" style="text;strokeColor=none;fillColor=none;align=left;verticalAlign=top;spacingLeft=4;spacingRight=4;overflow=hidden;rotatable=0;points=[[0,0.5],[1,0.5]];portConstraint=eastwest;whiteSpace=wrap;html=1;" parent="cW_9hfCkOxiDFIGcrexD-21" vertex="1">
          <mxGeometry y="26" width="160" height="34" as="geometry" />
        </mxCell>
        <mxCell id="cW_9hfCkOxiDFIGcrexD-23" value="" style="line;strokeWidth=1;fillColor=none;align=left;verticalAlign=middle;spacingTop=-1;spacingLeft=3;spacingRight=3;rotatable=0;labelPosition=right;points=[];portConstraint=eastwest;strokeColor=inherit;" parent="cW_9hfCkOxiDFIGcrexD-21" vertex="1">
          <mxGeometry y="60" width="160" height="8" as="geometry" />
        </mxCell>
        <mxCell id="cW_9hfCkOxiDFIGcrexD-24" value="&amp;nbsp;" style="text;strokeColor=none;fillColor=none;align=left;verticalAlign=top;spacingLeft=4;spacingRight=4;overflow=hidden;rotatable=0;points=[[0,0.5],[1,0.5]];portConstraint=eastwest;whiteSpace=wrap;html=1;" parent="cW_9hfCkOxiDFIGcrexD-21" vertex="1">
          <mxGeometry y="68" width="160" height="12" as="geometry" />
        </mxCell>
        <mxCell id="cW_9hfCkOxiDFIGcrexD-25" value="Commande" style="swimlane;fontStyle=1;align=center;verticalAlign=top;childLayout=stackLayout;horizontal=1;startSize=26;horizontalStack=0;resizeParent=1;resizeParentMax=0;resizeLast=0;collapsible=1;marginBottom=0;whiteSpace=wrap;html=1;" parent="1" vertex="1">
          <mxGeometry x="340" y="276" width="160" height="170" as="geometry" />
        </mxCell>
        <mxCell id="cW_9hfCkOxiDFIGcrexD-26" value="- etat&lt;br&gt;&lt;font color=&quot;#ff0000&quot;&gt;&lt;strike&gt;- prixTotal&lt;br&gt;- trancheHoraire&lt;/strike&gt;&lt;/font&gt;&lt;br&gt;&lt;font color=&quot;#00cc00&quot;&gt;- date&lt;br&gt;- dateRetrait&lt;br&gt;- heureDebut&lt;br&gt;- heureFin&lt;br&gt;- numero&lt;/font&gt;" style="text;strokeColor=none;fillColor=none;align=left;verticalAlign=top;spacingLeft=4;spacingRight=4;overflow=hidden;rotatable=0;points=[[0,0.5],[1,0.5]];portConstraint=eastwest;whiteSpace=wrap;html=1;" parent="cW_9hfCkOxiDFIGcrexD-25" vertex="1">
          <mxGeometry y="26" width="160" height="124" as="geometry" />
        </mxCell>
        <mxCell id="cW_9hfCkOxiDFIGcrexD-27" value="" style="line;strokeWidth=1;fillColor=none;align=left;verticalAlign=middle;spacingTop=-1;spacingLeft=3;spacingRight=3;rotatable=0;labelPosition=right;points=[];portConstraint=eastwest;strokeColor=inherit;" parent="cW_9hfCkOxiDFIGcrexD-25" vertex="1">
          <mxGeometry y="150" width="160" height="8" as="geometry" />
        </mxCell>
        <mxCell id="cW_9hfCkOxiDFIGcrexD-28" value="&amp;nbsp;" style="text;strokeColor=none;fillColor=none;align=left;verticalAlign=top;spacingLeft=4;spacingRight=4;overflow=hidden;rotatable=0;points=[[0,0.5],[1,0.5]];portConstraint=eastwest;whiteSpace=wrap;html=1;" parent="cW_9hfCkOxiDFIGcrexD-25" vertex="1">
          <mxGeometry y="158" width="160" height="12" as="geometry" />
        </mxCell>
        <mxCell id="cW_9hfCkOxiDFIGcrexD-30" value="" style="endArrow=none;html=1;rounded=0;entryX=0;entryY=0.25;entryDx=0;entryDy=0;exitX=1;exitY=0.5;exitDx=0;exitDy=0;" parent="1" source="cW_9hfCkOxiDFIGcrexD-17" target="cW_9hfCkOxiDFIGcrexD-25" edge="1">
          <mxGeometry width="50" height="50" relative="1" as="geometry">
            <mxPoint x="240" y="301" as="sourcePoint" />
            <mxPoint x="320" y="150" as="targetPoint" />
          </mxGeometry>
        </mxCell>
        <mxCell id="cW_9hfCkOxiDFIGcrexD-31" value="1" style="text;html=1;align=center;verticalAlign=middle;resizable=0;points=[];autosize=1;strokeColor=none;fillColor=none;" parent="1" vertex="1">
          <mxGeometry x="237" y="288" width="30" height="30" as="geometry" />
        </mxCell>
        <mxCell id="cW_9hfCkOxiDFIGcrexD-32" value="&lt;font style=&quot;font-size: 36px;&quot;&gt;*&lt;/font&gt;" style="text;html=1;align=center;verticalAlign=middle;resizable=0;points=[];autosize=1;strokeColor=none;fillColor=none;" parent="1" vertex="1">
          <mxGeometry x="307" y="280" width="40" height="60" as="geometry" />
        </mxCell>
        <mxCell id="cW_9hfCkOxiDFIGcrexD-33" value="" style="endArrow=none;html=1;rounded=0;exitX=0.5;exitY=0;exitDx=0;exitDy=0;entryX=0.49;entryY=1.067;entryDx=0;entryDy=0;entryPerimeter=0;" parent="1" source="cW_9hfCkOxiDFIGcrexD-25" target="cW_9hfCkOxiDFIGcrexD-24" edge="1">
          <mxGeometry width="50" height="50" relative="1" as="geometry">
            <mxPoint x="420" y="280" as="sourcePoint" />
            <mxPoint x="470" y="230" as="targetPoint" />
          </mxGeometry>
        </mxCell>
        <mxCell id="cW_9hfCkOxiDFIGcrexD-35" value="Boulanger" style="swimlane;fontStyle=1;align=center;verticalAlign=top;childLayout=stackLayout;horizontal=1;startSize=26;horizontalStack=0;resizeParent=1;resizeParentMax=0;resizeLast=0;collapsible=1;marginBottom=0;whiteSpace=wrap;html=1;" parent="1" vertex="1">
          <mxGeometry x="345" y="577.08" width="160" height="100" as="geometry" />
        </mxCell>
        <mxCell id="cW_9hfCkOxiDFIGcrexD-36" value="- login&lt;br&gt;- motDePasse&lt;br&gt;&lt;font color=&quot;#00cc00&quot;&gt;- isAdmin&lt;/font&gt;" style="text;strokeColor=none;fillColor=none;align=left;verticalAlign=top;spacingLeft=4;spacingRight=4;overflow=hidden;rotatable=0;points=[[0,0.5],[1,0.5]];portConstraint=eastwest;whiteSpace=wrap;html=1;" parent="cW_9hfCkOxiDFIGcrexD-35" vertex="1">
          <mxGeometry y="26" width="160" height="54" as="geometry" />
        </mxCell>
        <mxCell id="cW_9hfCkOxiDFIGcrexD-37" value="" style="line;strokeWidth=1;fillColor=none;align=left;verticalAlign=middle;spacingTop=-1;spacingLeft=3;spacingRight=3;rotatable=0;labelPosition=right;points=[];portConstraint=eastwest;strokeColor=inherit;" parent="cW_9hfCkOxiDFIGcrexD-35" vertex="1">
          <mxGeometry y="80" width="160" height="8" as="geometry" />
        </mxCell>
        <mxCell id="cW_9hfCkOxiDFIGcrexD-38" value="&amp;nbsp;" style="text;strokeColor=none;fillColor=none;align=left;verticalAlign=top;spacingLeft=4;spacingRight=4;overflow=hidden;rotatable=0;points=[[0,0.5],[1,0.5]];portConstraint=eastwest;whiteSpace=wrap;html=1;" parent="cW_9hfCkOxiDFIGcrexD-35" vertex="1">
          <mxGeometry y="88" width="160" height="12" as="geometry" />
        </mxCell>
        <mxCell id="cW_9hfCkOxiDFIGcrexD-42" value="1" style="text;html=1;align=center;verticalAlign=middle;resizable=0;points=[];autosize=1;strokeColor=none;fillColor=none;" parent="1" vertex="1">
          <mxGeometry x="420" y="250" width="30" height="30" as="geometry" />
        </mxCell>
        <mxCell id="cW_9hfCkOxiDFIGcrexD-43" value="1" style="text;html=1;align=center;verticalAlign=middle;resizable=0;points=[];autosize=1;strokeColor=none;fillColor=none;" parent="1" vertex="1">
          <mxGeometry x="420" y="198" width="30" height="30" as="geometry" />
        </mxCell>
        <mxCell id="cW_9hfCkOxiDFIGcrexD-44" value="&lt;font style=&quot;font-size: 36px;&quot;&gt;*&lt;/font&gt;" style="text;html=1;align=center;verticalAlign=middle;resizable=0;points=[];autosize=1;strokeColor=none;fillColor=none;" parent="1" vertex="1">
          <mxGeometry x="430" y="190" width="40" height="60" as="geometry" />
        </mxCell>
        <mxCell id="cW_9hfCkOxiDFIGcrexD-46" value="Emplacement" style="swimlane;fontStyle=1;align=center;verticalAlign=top;childLayout=stackLayout;horizontal=1;startSize=26;horizontalStack=0;resizeParent=1;resizeParentMax=0;resizeLast=0;collapsible=1;marginBottom=0;whiteSpace=wrap;html=1;" parent="1" vertex="1">
          <mxGeometry x="622" y="608" width="160" height="100" as="geometry" />
        </mxCell>
        <mxCell id="cW_9hfCkOxiDFIGcrexD-47" value="- numero&lt;br&gt;&lt;font color=&quot;#ff0000&quot;&gt;&lt;strike&gt;- taille&lt;/strike&gt;&lt;/font&gt;&lt;br&gt;&lt;font color=&quot;#00cc00&quot;&gt;- capacite&lt;/font&gt;" style="text;strokeColor=none;fillColor=none;align=left;verticalAlign=top;spacingLeft=4;spacingRight=4;overflow=hidden;rotatable=0;points=[[0,0.5],[1,0.5]];portConstraint=eastwest;whiteSpace=wrap;html=1;" parent="cW_9hfCkOxiDFIGcrexD-46" vertex="1">
          <mxGeometry y="26" width="160" height="54" as="geometry" />
        </mxCell>
        <mxCell id="cW_9hfCkOxiDFIGcrexD-48" value="" style="line;strokeWidth=1;fillColor=none;align=left;verticalAlign=middle;spacingTop=-1;spacingLeft=3;spacingRight=3;rotatable=0;labelPosition=right;points=[];portConstraint=eastwest;strokeColor=inherit;" parent="cW_9hfCkOxiDFIGcrexD-46" vertex="1">
          <mxGeometry y="80" width="160" height="8" as="geometry" />
        </mxCell>
        <mxCell id="cW_9hfCkOxiDFIGcrexD-49" value="&amp;nbsp;" style="text;strokeColor=none;fillColor=none;align=left;verticalAlign=top;spacingLeft=4;spacingRight=4;overflow=hidden;rotatable=0;points=[[0,0.5],[1,0.5]];portConstraint=eastwest;whiteSpace=wrap;html=1;" parent="cW_9hfCkOxiDFIGcrexD-46" vertex="1">
          <mxGeometry y="88" width="160" height="12" as="geometry" />
        </mxCell>
        <mxCell id="cW_9hfCkOxiDFIGcrexD-51" value="&amp;lt;&amp;lt;abstract&amp;gt;&amp;gt;&lt;br&gt;&lt;font style=&quot;&quot; color=&quot;#ff0000&quot;&gt;&lt;strike&gt;Contenu&lt;/strike&gt;&lt;/font&gt;&lt;br&gt;&lt;font color=&quot;#00cc00&quot;&gt;Occupant&lt;/font&gt;" style="swimlane;fontStyle=1;align=center;verticalAlign=top;childLayout=stackLayout;horizontal=1;startSize=52;horizontalStack=0;resizeParent=1;resizeParentMax=0;resizeLast=0;collapsible=1;marginBottom=0;whiteSpace=wrap;html=1;" parent="1" vertex="1">
          <mxGeometry x="619" y="260.5" width="160" height="119" as="geometry" />
        </mxCell>
        <mxCell id="cW_9hfCkOxiDFIGcrexD-52" value="&lt;font color=&quot;#00cc00&quot;&gt;- numero&lt;br&gt;- capacite&lt;/font&gt;" style="text;strokeColor=none;fillColor=none;align=left;verticalAlign=top;spacingLeft=4;spacingRight=4;overflow=hidden;rotatable=0;points=[[0,0.5],[1,0.5]];portConstraint=eastwest;whiteSpace=wrap;html=1;" parent="cW_9hfCkOxiDFIGcrexD-51" vertex="1">
          <mxGeometry y="52" width="160" height="44" as="geometry" />
        </mxCell>
        <mxCell id="cW_9hfCkOxiDFIGcrexD-53" value="" style="line;strokeWidth=1;fillColor=none;align=left;verticalAlign=middle;spacingTop=-1;spacingLeft=3;spacingRight=3;rotatable=0;labelPosition=right;points=[];portConstraint=eastwest;strokeColor=inherit;" parent="cW_9hfCkOxiDFIGcrexD-51" vertex="1">
          <mxGeometry y="96" width="160" height="8" as="geometry" />
        </mxCell>
        <mxCell id="cW_9hfCkOxiDFIGcrexD-54" value="&amp;nbsp;" style="text;strokeColor=none;fillColor=none;align=left;verticalAlign=top;spacingLeft=4;spacingRight=4;overflow=hidden;rotatable=0;points=[[0,0.5],[1,0.5]];portConstraint=eastwest;whiteSpace=wrap;html=1;" parent="cW_9hfCkOxiDFIGcrexD-51" vertex="1">
          <mxGeometry y="104" width="160" height="15" as="geometry" />
        </mxCell>
        <mxCell id="cW_9hfCkOxiDFIGcrexD-56" value="" style="endArrow=block;html=1;rounded=0;exitX=0.999;exitY=0.111;exitDx=0;exitDy=0;entryX=-0.011;entryY=0.31;entryDx=0;entryDy=0;endFill=0;exitPerimeter=0;entryPerimeter=0;strokeColor=#00CC00;" parent="1" source="cW_9hfCkOxiDFIGcrexD-25" target="cW_9hfCkOxiDFIGcrexD-51" edge="1">
          <mxGeometry width="50" height="50" relative="1" as="geometry">
            <mxPoint x="250" y="44" as="sourcePoint" />
            <mxPoint x="630" y="-82" as="targetPoint" />
          </mxGeometry>
        </mxCell>
        <mxCell id="cW_9hfCkOxiDFIGcrexD-57" value="&lt;font color=&quot;#ff0000&quot;&gt;&lt;strike&gt;Disposition&lt;/strike&gt;&lt;/font&gt;&lt;br&gt;&lt;font color=&quot;#00cc00&quot;&gt;Occupation&lt;/font&gt;" style="swimlane;fontStyle=1;align=center;verticalAlign=top;childLayout=stackLayout;horizontal=1;startSize=42;horizontalStack=0;resizeParent=1;resizeParentMax=0;resizeLast=0;collapsible=1;marginBottom=0;whiteSpace=wrap;html=1;" parent="1" vertex="1">
          <mxGeometry x="622" y="438" width="160" height="120" as="geometry" />
        </mxCell>
        <mxCell id="cW_9hfCkOxiDFIGcrexD-58" value="&lt;font color=&quot;#ff0000&quot;&gt;&lt;strike&gt;- dateDisposition&lt;/strike&gt;&lt;/font&gt;&lt;br&gt;&lt;font color=&quot;#00cc00&quot;&gt;- dateDebut&lt;br&gt;- dateFin&lt;/font&gt;" style="text;strokeColor=none;fillColor=none;align=left;verticalAlign=top;spacingLeft=4;spacingRight=4;overflow=hidden;rotatable=0;points=[[0,0.5],[1,0.5]];portConstraint=eastwest;whiteSpace=wrap;html=1;" parent="cW_9hfCkOxiDFIGcrexD-57" vertex="1">
          <mxGeometry y="42" width="160" height="58" as="geometry" />
        </mxCell>
        <mxCell id="cW_9hfCkOxiDFIGcrexD-59" value="" style="line;strokeWidth=1;fillColor=none;align=left;verticalAlign=middle;spacingTop=-1;spacingLeft=3;spacingRight=3;rotatable=0;labelPosition=right;points=[];portConstraint=eastwest;strokeColor=inherit;" parent="cW_9hfCkOxiDFIGcrexD-57" vertex="1">
          <mxGeometry y="100" width="160" height="8" as="geometry" />
        </mxCell>
        <mxCell id="cW_9hfCkOxiDFIGcrexD-60" value="&amp;nbsp;" style="text;strokeColor=none;fillColor=none;align=left;verticalAlign=top;spacingLeft=4;spacingRight=4;overflow=hidden;rotatable=0;points=[[0,0.5],[1,0.5]];portConstraint=eastwest;whiteSpace=wrap;html=1;" parent="cW_9hfCkOxiDFIGcrexD-57" vertex="1">
          <mxGeometry y="108" width="160" height="12" as="geometry" />
        </mxCell>
        <mxCell id="cW_9hfCkOxiDFIGcrexD-61" value="" style="endArrow=none;html=1;rounded=0;exitX=0.5;exitY=0;exitDx=0;exitDy=0;entryX=0.513;entryY=1.04;entryDx=0;entryDy=0;entryPerimeter=0;" parent="1" source="cW_9hfCkOxiDFIGcrexD-57" target="cW_9hfCkOxiDFIGcrexD-54" edge="1">
          <mxGeometry width="50" height="50" relative="1" as="geometry">
            <mxPoint x="760" y="537" as="sourcePoint" />
            <mxPoint x="758" y="378" as="targetPoint" />
          </mxGeometry>
        </mxCell>
        <mxCell id="cW_9hfCkOxiDFIGcrexD-63" value="1" style="text;html=1;align=center;verticalAlign=middle;resizable=0;points=[];autosize=1;strokeColor=none;fillColor=none;" parent="1" vertex="1">
          <mxGeometry x="697" y="384" width="30" height="30" as="geometry" />
        </mxCell>
        <mxCell id="cW_9hfCkOxiDFIGcrexD-65" value="&lt;font color=&quot;#00cc00&quot; style=&quot;font-size: 36px;&quot;&gt;*&lt;/font&gt;" style="text;html=1;align=center;verticalAlign=middle;resizable=0;points=[];autosize=1;strokeColor=none;fillColor=none;" parent="1" vertex="1">
          <mxGeometry x="710" y="402" width="40" height="60" as="geometry" />
        </mxCell>
        <mxCell id="cW_9hfCkOxiDFIGcrexD-67" value="" style="endArrow=none;html=1;rounded=0;exitX=0.5;exitY=0;exitDx=0;exitDy=0;entryX=0.502;entryY=1.046;entryDx=0;entryDy=0;entryPerimeter=0;" parent="1" source="cW_9hfCkOxiDFIGcrexD-46" target="cW_9hfCkOxiDFIGcrexD-60" edge="1">
          <mxGeometry width="50" height="50" relative="1" as="geometry">
            <mxPoint x="712" y="448" as="sourcePoint" />
            <mxPoint x="624" y="383" as="targetPoint" />
          </mxGeometry>
        </mxCell>
        <mxCell id="cW_9hfCkOxiDFIGcrexD-68" value="&lt;font style=&quot;font-size: 36px;&quot;&gt;*&lt;/font&gt;" style="text;html=1;align=center;verticalAlign=middle;resizable=0;points=[];autosize=1;strokeColor=none;fillColor=none;" parent="1" vertex="1">
          <mxGeometry x="695" y="531" width="40" height="60" as="geometry" />
        </mxCell>
        <mxCell id="cW_9hfCkOxiDFIGcrexD-69" value="1" style="text;html=1;align=center;verticalAlign=middle;resizable=0;points=[];autosize=1;strokeColor=none;fillColor=none;" parent="1" vertex="1">
          <mxGeometry x="702" y="578" width="30" height="30" as="geometry" />
        </mxCell>
        <mxCell id="cW_9hfCkOxiDFIGcrexD-71" value="" style="endArrow=none;html=1;rounded=0;exitX=0.5;exitY=0;exitDx=0;exitDy=0;entryX=0.34;entryY=0.954;entryDx=0;entryDy=0;entryPerimeter=0;startArrow=open;startFill=0;" parent="1" target="cW_9hfCkOxiDFIGcrexD-28" edge="1">
          <mxGeometry width="50" height="50" relative="1" as="geometry">
            <mxPoint x="395" y="577.08" as="sourcePoint" />
            <mxPoint x="394.76" y="469.9959999999999" as="targetPoint" />
          </mxGeometry>
        </mxCell>
        <mxCell id="cW_9hfCkOxiDFIGcrexD-72" value="" style="endArrow=none;html=1;rounded=0;exitX=0.5;exitY=0;exitDx=0;exitDy=0;endFill=0;startArrow=open;startFill=0;fontColor=none;noLabel=1;strokeColor=#00CC00;entryX=0.777;entryY=0.944;entryDx=0;entryDy=0;entryPerimeter=0;" parent="1" edge="1" target="cW_9hfCkOxiDFIGcrexD-28">
          <mxGeometry width="50" height="50" relative="1" as="geometry">
            <mxPoint x="465" y="577.08" as="sourcePoint" />
            <mxPoint x="465" y="440" as="targetPoint" />
          </mxGeometry>
        </mxCell>
        <mxCell id="cW_9hfCkOxiDFIGcrexD-73" value="&lt;font color=&quot;#00cc00&quot; style=&quot;font-size: 18px;&quot;&gt;- déposeur&lt;/font&gt;" style="text;html=1;align=center;verticalAlign=middle;resizable=0;points=[];autosize=1;strokeColor=none;fillColor=none;" parent="1" vertex="1">
          <mxGeometry x="475" y="507.08" width="110" height="40" as="geometry" />
        </mxCell>
        <mxCell id="cW_9hfCkOxiDFIGcrexD-74" value="&lt;font color=&quot;#00cc00&quot; style=&quot;font-size: 18px;&quot;&gt;- récolteur&lt;/font&gt;" style="text;html=1;align=center;verticalAlign=middle;resizable=0;points=[];autosize=1;strokeColor=none;fillColor=none;" parent="1" vertex="1">
          <mxGeometry x="282" y="507.08" width="100" height="40" as="geometry" />
        </mxCell>
        <mxCell id="cW_9hfCkOxiDFIGcrexD-76" value="&lt;font style=&quot;font-size: 36px;&quot;&gt;*&lt;/font&gt;" style="text;html=1;align=center;verticalAlign=middle;resizable=0;points=[];autosize=1;strokeColor=none;fillColor=none;" parent="1" vertex="1">
          <mxGeometry x="352" y="471.08" width="40" height="60" as="geometry" />
        </mxCell>
        <mxCell id="cW_9hfCkOxiDFIGcrexD-77" value="&lt;font style=&quot;font-size: 36px;&quot;&gt;*&lt;/font&gt;" style="text;html=1;align=center;verticalAlign=middle;resizable=0;points=[];autosize=1;strokeColor=none;fillColor=none;fontColor=#00CC00;" parent="1" vertex="1">
          <mxGeometry x="462" y="471.08" width="40" height="60" as="geometry" />
        </mxCell>
        <mxCell id="cW_9hfCkOxiDFIGcrexD-78" value="&lt;font color=&quot;#00cc00&quot;&gt;0...&lt;/font&gt;1" style="text;html=1;align=center;verticalAlign=middle;resizable=0;points=[];autosize=1;strokeColor=none;fillColor=none;" parent="1" vertex="1">
          <mxGeometry x="347" y="547.08" width="50" height="30" as="geometry" />
        </mxCell>
        <mxCell id="cW_9hfCkOxiDFIGcrexD-79" value="&lt;font color=&quot;#00cc00&quot;&gt;0...1&lt;/font&gt;" style="text;html=1;align=center;verticalAlign=middle;resizable=0;points=[];autosize=1;strokeColor=none;fillColor=none;" parent="1" vertex="1">
          <mxGeometry x="462" y="547.08" width="50" height="30" as="geometry" />
        </mxCell>
        <mxCell id="cW_9hfCkOxiDFIGcrexD-98" value="&lt;font color=&quot;#00cc00&quot;&gt;Vente&lt;/font&gt;" style="swimlane;fontStyle=1;align=center;verticalAlign=top;childLayout=stackLayout;horizontal=1;startSize=26;horizontalStack=0;resizeParent=1;resizeParentMax=0;resizeLast=0;collapsible=1;marginBottom=0;whiteSpace=wrap;html=1;fillColor=#d5e8d4;strokeColor=#82b366;" parent="1" vertex="1">
          <mxGeometry x="876" y="117" width="160" height="90" as="geometry" />
        </mxCell>
        <mxCell id="cW_9hfCkOxiDFIGcrexD-99" value="&lt;font color=&quot;#00cc00&quot;&gt;- date&lt;br&gt;- prixUnitaire&lt;/font&gt;" style="text;strokeColor=none;fillColor=none;align=left;verticalAlign=top;spacingLeft=4;spacingRight=4;overflow=hidden;rotatable=0;points=[[0,0.5],[1,0.5]];portConstraint=eastwest;whiteSpace=wrap;html=1;" parent="cW_9hfCkOxiDFIGcrexD-98" vertex="1">
          <mxGeometry y="26" width="160" height="44" as="geometry" />
        </mxCell>
        <mxCell id="cW_9hfCkOxiDFIGcrexD-100" value="" style="line;strokeWidth=1;fillColor=none;align=left;verticalAlign=middle;spacingTop=-1;spacingLeft=3;spacingRight=3;rotatable=0;labelPosition=right;points=[];portConstraint=eastwest;strokeColor=inherit;" parent="cW_9hfCkOxiDFIGcrexD-98" vertex="1">
          <mxGeometry y="70" width="160" height="8" as="geometry" />
        </mxCell>
        <mxCell id="cW_9hfCkOxiDFIGcrexD-101" value="&amp;nbsp;" style="text;strokeColor=none;fillColor=none;align=left;verticalAlign=top;spacingLeft=4;spacingRight=4;overflow=hidden;rotatable=0;points=[[0,0.5],[1,0.5]];portConstraint=eastwest;whiteSpace=wrap;html=1;" parent="cW_9hfCkOxiDFIGcrexD-98" vertex="1">
          <mxGeometry y="78" width="160" height="12" as="geometry" />
        </mxCell>
        <mxCell id="cW_9hfCkOxiDFIGcrexD-105" value="Pain" style="swimlane;fontStyle=1;align=center;verticalAlign=top;childLayout=stackLayout;horizontal=1;startSize=26;horizontalStack=0;resizeParent=1;resizeParentMax=0;resizeLast=0;collapsible=1;marginBottom=0;whiteSpace=wrap;html=1;" parent="1" vertex="1">
          <mxGeometry x="620" y="100" width="160" height="120" as="geometry" />
        </mxCell>
        <mxCell id="cW_9hfCkOxiDFIGcrexD-106" value="- prix&lt;br&gt;- nom&lt;br&gt;- poids&lt;br&gt;- type" style="text;strokeColor=none;fillColor=none;align=left;verticalAlign=top;spacingLeft=4;spacingRight=4;overflow=hidden;rotatable=0;points=[[0,0.5],[1,0.5]];portConstraint=eastwest;whiteSpace=wrap;html=1;" parent="cW_9hfCkOxiDFIGcrexD-105" vertex="1">
          <mxGeometry y="26" width="160" height="74" as="geometry" />
        </mxCell>
        <mxCell id="cW_9hfCkOxiDFIGcrexD-107" value="" style="line;strokeWidth=1;fillColor=none;align=left;verticalAlign=middle;spacingTop=-1;spacingLeft=3;spacingRight=3;rotatable=0;labelPosition=right;points=[];portConstraint=eastwest;strokeColor=inherit;" parent="cW_9hfCkOxiDFIGcrexD-105" vertex="1">
          <mxGeometry y="100" width="160" height="8" as="geometry" />
        </mxCell>
        <mxCell id="cW_9hfCkOxiDFIGcrexD-108" value="&amp;nbsp;" style="text;strokeColor=none;fillColor=none;align=left;verticalAlign=top;spacingLeft=4;spacingRight=4;overflow=hidden;rotatable=0;points=[[0,0.5],[1,0.5]];portConstraint=eastwest;whiteSpace=wrap;html=1;" parent="cW_9hfCkOxiDFIGcrexD-105" vertex="1">
          <mxGeometry y="108" width="160" height="12" as="geometry" />
        </mxCell>
        <mxCell id="cW_9hfCkOxiDFIGcrexD-109" value="" style="endArrow=none;html=1;rounded=0;exitX=1;exitY=0.25;exitDx=0;exitDy=0;entryX=0;entryY=0.16;entryDx=0;entryDy=0;entryPerimeter=0;" parent="1" source="cW_9hfCkOxiDFIGcrexD-21" target="cW_9hfCkOxiDFIGcrexD-106" edge="1">
          <mxGeometry width="50" height="50" relative="1" as="geometry">
            <mxPoint x="510" y="168.03200000000004" as="sourcePoint" />
            <mxPoint x="610" y="168" as="targetPoint" />
          </mxGeometry>
        </mxCell>
        <mxCell id="cW_9hfCkOxiDFIGcrexD-110" value="&lt;font color=&quot;#00cc00&quot;&gt;1&lt;/font&gt;" style="text;html=1;align=center;verticalAlign=middle;resizable=0;points=[];autosize=1;strokeColor=none;fillColor=none;" parent="1" vertex="1">
          <mxGeometry x="590" y="137" width="30" height="30" as="geometry" />
        </mxCell>
        <mxCell id="cW_9hfCkOxiDFIGcrexD-111" value="&lt;font color=&quot;#ff0000&quot; style=&quot;font-size: 12px;&quot;&gt;&lt;strike&gt;1&lt;/strike&gt;&lt;/font&gt;&lt;br&gt;&lt;span style=&quot;color: rgb(0, 204, 0); font-size: 36px;&quot;&gt;*&lt;/span&gt;" style="text;html=1;align=center;verticalAlign=middle;resizable=0;points=[];autosize=1;strokeColor=none;fillColor=none;" parent="1" vertex="1">
          <mxGeometry x="492" y="137" width="40" height="70" as="geometry" />
        </mxCell>
        <mxCell id="cW_9hfCkOxiDFIGcrexD-117" value="" style="endArrow=none;html=1;rounded=0;exitX=1;exitY=0.25;exitDx=0;exitDy=0;entryX=0;entryY=0.25;entryDx=0;entryDy=0;strokeColor=#00CC00;" parent="1" target="cW_9hfCkOxiDFIGcrexD-98" edge="1">
          <mxGeometry width="50" height="50" relative="1" as="geometry">
            <mxPoint x="780" y="139" as="sourcePoint" />
            <mxPoint x="897" y="139" as="targetPoint" />
          </mxGeometry>
        </mxCell>
        <mxCell id="cW_9hfCkOxiDFIGcrexD-118" value="&lt;font color=&quot;#00cc00&quot;&gt;1&lt;/font&gt;" style="text;html=1;align=center;verticalAlign=middle;resizable=0;points=[];autosize=1;strokeColor=none;fillColor=none;" parent="1" vertex="1">
          <mxGeometry x="846" y="143" width="30" height="30" as="geometry" />
        </mxCell>
        <mxCell id="cW_9hfCkOxiDFIGcrexD-119" value="&lt;font color=&quot;#00cc00&quot; style=&quot;font-size: 36px;&quot;&gt;*&lt;/font&gt;" style="text;html=1;align=center;verticalAlign=middle;resizable=0;points=[];autosize=1;strokeColor=none;fillColor=none;" parent="1" vertex="1">
          <mxGeometry x="772" y="130" width="40" height="60" as="geometry" />
        </mxCell>
        <mxCell id="cW_9hfCkOxiDFIGcrexD-120" value="" style="endArrow=block;html=1;rounded=0;exitX=0.495;exitY=1.053;exitDx=0;exitDy=0;entryX=0.5;entryY=0;entryDx=0;entryDy=0;endFill=0;exitPerimeter=0;" parent="1" source="cW_9hfCkOxiDFIGcrexD-108" target="cW_9hfCkOxiDFIGcrexD-51" edge="1">
          <mxGeometry width="50" height="50" relative="1" as="geometry">
            <mxPoint x="508" y="302" as="sourcePoint" />
            <mxPoint x="630" y="303" as="targetPoint" />
          </mxGeometry>
        </mxCell>
        <mxCell id="ObWl546YpZ1q91s2rCe_-1" value="&lt;font color=&quot;#ff0000&quot;&gt;&lt;strike&gt;- client&lt;/strike&gt;&lt;/font&gt;" style="text;html=1;align=center;verticalAlign=middle;resizable=0;points=[];autosize=1;strokeColor=none;fillColor=none;" vertex="1" parent="1">
          <mxGeometry x="237" y="267" width="60" height="30" as="geometry" />
        </mxCell>
        <mxCell id="ObWl546YpZ1q91s2rCe_-6" value="" style="endArrow=block;html=1;rounded=0;exitX=1;exitY=0.5;exitDx=0;exitDy=0;entryX=0;entryY=0;entryDx=0;entryDy=0;endFill=0;strokeColor=#FF0000;" edge="1" parent="1" source="cW_9hfCkOxiDFIGcrexD-24" target="cW_9hfCkOxiDFIGcrexD-51">
          <mxGeometry width="50" height="50" relative="1" as="geometry">
            <mxPoint x="510" y="309" as="sourcePoint" />
            <mxPoint x="627" y="307" as="targetPoint" />
          </mxGeometry>
        </mxCell>
        <mxCell id="ObWl546YpZ1q91s2rCe_-7" value="&lt;font color=&quot;#ff0000&quot; style=&quot;font-size: 20px;&quot;&gt;X&lt;/font&gt;" style="edgeLabel;html=1;align=center;verticalAlign=middle;resizable=0;points=[];" vertex="1" connectable="0" parent="ObWl546YpZ1q91s2rCe_-6">
          <mxGeometry x="0.0234" relative="1" as="geometry">
            <mxPoint as="offset" />
          </mxGeometry>
        </mxCell>
        <mxCell id="ObWl546YpZ1q91s2rCe_-8" value="&lt;font color=&quot;#ff0000&quot;&gt;&lt;strike&gt;1&lt;/strike&gt;&lt;/font&gt;" style="text;html=1;align=center;verticalAlign=middle;resizable=0;points=[];autosize=1;strokeColor=none;fillColor=none;" vertex="1" parent="1">
          <mxGeometry x="697" y="410" width="30" height="30" as="geometry" />
        </mxCell>
        <mxCell id="ObWl546YpZ1q91s2rCe_-9" value="" style="endArrow=none;html=1;rounded=0;entryX=0;entryY=0.5;entryDx=0;entryDy=0;startArrow=open;startFill=0;exitX=1;exitY=0.25;exitDx=0;exitDy=0;strokeColor=#FF0000;" edge="1" parent="1" source="cW_9hfCkOxiDFIGcrexD-35" target="cW_9hfCkOxiDFIGcrexD-60">
          <mxGeometry width="50" height="50" relative="1" as="geometry">
            <mxPoint x="540" y="580" as="sourcePoint" />
            <mxPoint x="404" y="455" as="targetPoint" />
          </mxGeometry>
        </mxCell>
        <mxCell id="ObWl546YpZ1q91s2rCe_-10" value="&lt;font color=&quot;#ff0000&quot; style=&quot;font-size: 20px;&quot;&gt;X&lt;/font&gt;" style="edgeLabel;html=1;align=center;verticalAlign=middle;resizable=0;points=[];" vertex="1" connectable="0" parent="ObWl546YpZ1q91s2rCe_-9">
          <mxGeometry x="-0.0367" relative="1" as="geometry">
            <mxPoint as="offset" />
          </mxGeometry>
        </mxCell>
        <mxCell id="ObWl546YpZ1q91s2rCe_-11" value="&lt;font color=&quot;#ff0000&quot;&gt;&lt;strike&gt;0 ...&lt;/strike&gt;&lt;/font&gt;" style="text;html=1;align=center;verticalAlign=middle;resizable=0;points=[];autosize=1;strokeColor=none;fillColor=none;" vertex="1" parent="1">
          <mxGeometry x="570" y="528" width="40" height="30" as="geometry" />
        </mxCell>
        <mxCell id="ObWl546YpZ1q91s2rCe_-12" value="&lt;font color=&quot;#ff0000&quot; style=&quot;font-size: 36px;&quot;&gt;*&lt;/font&gt;" style="text;html=1;align=center;verticalAlign=middle;resizable=0;points=[];autosize=1;strokeColor=none;fillColor=none;" vertex="1" parent="1">
          <mxGeometry x="590" y="518" width="40" height="60" as="geometry" />
        </mxCell>
        <mxCell id="ObWl546YpZ1q91s2rCe_-13" value="&lt;font color=&quot;#ff0000&quot;&gt;&lt;strike&gt;1&lt;/strike&gt;&lt;/font&gt;" style="text;html=1;align=center;verticalAlign=middle;resizable=0;points=[];autosize=1;strokeColor=none;fillColor=none;" vertex="1" parent="1">
          <mxGeometry x="502" y="600" width="30" height="30" as="geometry" />
        </mxCell>
        <mxCell id="ObWl546YpZ1q91s2rCe_-14" value="&lt;font color=&quot;#ff0000&quot;&gt;&lt;strike&gt;- disposeur&lt;/strike&gt;&lt;/font&gt;" style="text;html=1;align=center;verticalAlign=middle;resizable=0;points=[];autosize=1;strokeColor=none;fillColor=none;" vertex="1" parent="1">
          <mxGeometry x="500" y="612.08" width="80" height="30" as="geometry" />
        </mxCell>
      </root>
    </mxGraphModel>
  </diagram>
</mxfile>
